<?xml version="1.0" standalone="no"?>
<!DOCTYPE svg PUBLIC "-//W3C//DTD SVG 20010904//EN"
 "http://www.w3.org/TR/2001/REC-SVG-20010904/DTD/svg10.dtd">
<svg version="1.0" xmlns="http://www.w3.org/2000/svg"
 width="700.000000pt" height="700.000000pt" viewBox="0 0 700.000000 700.000000"
 preserveAspectRatio="xMidYMid meet">
<metadata>
Created by potrace 1.14, written by Peter Selinger 2001-2017
</metadata>
<g transform="translate(0.000000,700.000000) scale(0.100000,-0.100000)"
fill="#000000" stroke="none">
<path d="M3278 6235 c-2 -1 -37 -5 -78 -9 -41 -3 -84 -8 -95 -10 -11 -2 -42
-7 -68 -10 -179 -24 -440 -100 -647 -188 -147 -62 -425 -227 -543 -320 -199
-158 -280 -241 -295 -299 -11 -45 -7 -100 10 -132 11 -22 13 -19 -32 -42 -85
-44 -132 -90 -150 -150 -7 -22 -36 -88 -65 -146 -45 -92 -52 -113 -49 -156 3
-49 1 -52 -50 -105 -83 -85 -129 -205 -125 -325 2 -52 -3 -61 -103 -188 -113
-142 -238 -339 -311 -489 -50 -103 -60 -161 -39 -216 13 -34 68 -90 122 -124
66 -42 181 -162 220 -231 18 -33 34 -61 35 -62 0 -1 26 -5 56 -8 29 -4 66 -15
80 -25 57 -41 189 -67 189 -37 0 7 -8 17 -18 23 -9 6 -30 34 -45 61 -32 60
-34 58 86 107 118 49 157 54 190 24 26 -23 26 -23 11 -78 -9 -35 -14 -89 -12
-147 l2 -93 -37 -38 c-20 -21 -37 -43 -37 -49 0 -6 -6 -16 -14 -22 -12 -10
-18 -2 -34 41 -11 29 -21 62 -23 73 -7 36 -33 22 -51 -28 -15 -40 -23 -83 -27
-145 -1 -7 -6 -10 -12 -7 -17 11 -47 -24 -53 -63 -16 -98 -7 -221 20 -274 19
-37 244 -268 271 -279 21 -8 22 -10 8 -43 -19 -44 -19 -107 -1 -149 27 -66
241 -251 451 -389 178 -118 486 -264 665 -314 72 -20 169 -46 185 -49 11 -3
31 -7 45 -10 39 -8 73 -15 100 -19 28 -5 131 -19 142 -20 4 -1 20 -21 36 -46
41 -64 80 -100 137 -126 138 -64 304 -19 385 104 16 24 30 48 32 54 2 6 17 12
33 14 17 2 44 6 60 8 120 15 341 68 479 115 89 31 323 127 341 142 6 4 42 24
80 44 82 44 229 136 233 147 2 5 8 8 13 8 5 0 17 6 26 14 10 8 47 38 83 66
249 196 309 283 267 388 l-16 39 37 24 c37 24 51 45 109 175 18 39 48 91 68
114 20 24 42 55 50 69 15 31 12 89 -9 129 -11 20 -12 39 -6 65 11 52 4 136
-16 186 -19 47 -33 49 -47 5 -16 -53 -49 -134 -55 -134 -11 0 -83 83 -106 124
-34 57 -56 140 -59 217 l-2 64 50 16 c44 14 92 16 216 10 14 0 33 -7 43 -14
18 -13 17 -15 -2 -54 -12 -22 -35 -52 -53 -67 -39 -33 -33 -57 13 -49 65 10
139 32 155 45 7 5 33 12 59 14 61 6 88 21 154 87 30 30 89 83 130 117 41 34
95 79 119 99 58 48 84 102 85 172 0 45 -7 71 -41 140 -73 148 -174 317 -290
486 -77 112 -83 127 -89 222 -5 70 -9 81 -52 144 -26 37 -75 108 -109 158
l-62 91 1 71 c1 87 -7 125 -40 196 -34 72 -100 137 -199 196 l-82 49 25 41
c27 47 33 103 15 156 -17 51 -155 183 -322 307 -384 283 -800 446 -1299 507
-53 7 -446 15 -452 10z"/>
</g>
</svg>
