<?xml version="1.0" encoding="UTF-8" standalone="no"?>
<!-- Generator: Adobe Illustrator 19.2.1, SVG Export Plug-In . SVG Version: 6.00 Build 0)  -->

<svg
   version="1.1"
   id="layer"
   x="0px"
   y="0px"
   viewBox="0 0 566.40491 566.40491"
   xml:space="preserve"
   sodipodi:docname="lions-logo.svg"
   width="566.40491"
   height="566.40491"
   inkscape:export-filename="/tmp/lions-logo.png"
   inkscape:export-xdpi="101.03249"
   inkscape:export-ydpi="101.03249"
   inkscape:version="1.1.2 (0a00cf5339, 2022-02-04)"
   xmlns:inkscape="http://www.inkscape.org/namespaces/inkscape"
   xmlns:sodipodi="http://sodipodi.sourceforge.net/DTD/sodipodi-0.dtd"
   xmlns="http://www.w3.org/2000/svg"
   xmlns:svg="http://www.w3.org/2000/svg"><defs
   id="defs884" /><sodipodi:namedview
   id="namedview882"
   pagecolor="#ffffff"
   bordercolor="#666666"
   borderopacity="1.0"
   inkscape:pageshadow="2"
   inkscape:pageopacity="0.0"
   inkscape:pagecheckerboard="0"
   showgrid="false"
   fit-margin-top="20"
   fit-margin-left="20"
   fit-margin-right="20"
   fit-margin-bottom="20"
   inkscape:zoom="1.4125767"
   inkscape:cx="258.39305"
   inkscape:cy="275.02932"
   inkscape:window-width="1914"
   inkscape:window-height="1172"
   inkscape:window-x="0"
   inkscape:window-y="22"
   inkscape:window-maximized="1"
   inkscape:current-layer="layer" />
<style
   type="text/css"
   id="style875">
	.st0{fill:#FFCF01;}
	.st1{fill:#00539B;}
</style>

<g
   id="g968"
   transform="translate(0,13.302454)"><path
     class="st0"
     d="m 545.10493,279 c 0,-4.2 -1.6,-8.4 -3.9,-12.9 l -0.5,-1.2 v 0 0 0 l -0.7,-1.2 c -11.8,-22.4 -27.4,-45.6 -31.7,-51.1 v -0.1 -0.1 c -0.9,-1.6 -2,-4.9 -2.4,-8.4 -0.5,-3.9 -0.3,-7.9 -0.5,-10 -0.3,-1.8 -1.2,-3 -2.5,-5 -1.3,-1.8 -3,-3.9 -4.7,-6.3 -2.5,-3.6 -5.1,-7.2 -7.2,-10.3 -1.1,-1.4 -2,-2.9 -2.6,-3.9 -0.7,-1.1 -1.1,-1.6 -1.2,-1.8 -0.9,-1.7 -1.8,-2.9 -2.4,-3.8 0,-0.1 -0.1,-0.3 -0.1,-0.4 l -0.1,-0.4 0.1,-0.4 c 0.3,-1.4 0.7,-3.9 0.7,-7.1 0,-0.1 0,-0.1 0,-0.3 0,0 0,-0.1 0,-0.3 0,-8.7 -3.6,-22.4 -19.4,-31.5 -3.9,-2.2 -7.4,-4.3 -10.5,-6.3 l -1.4,-0.9 1.2,-1.2 c 2.9,-2.9 4.7,-7 4.7,-11.2 0,-0.1 0,0 0,-0.1 v 0 0 c 0,-4.5 -1.8,-8.7 -4.9,-11.6 l -0.5,-0.5 c -44.6,-43 -105.1,-69.6 -171.7,-69.6 v 0 c -0.1,0 -0.1,0 -0.1,0 h -0.1 v 0 c -66.6,0 -127,26.6 -171.3,69.8 l -0.1,0.1 c -3.2,3 -5.1,7.2 -5.1,11.8 v 0.1 0.3 c 0,3 0.9,5.9 2.5,8.4 l 0.8,1.2 -1.3,0.7 c -2,1.1 -4.5,2.4 -7,3.9 -4.099998,2.6 -7.999998,5.5 -9.699998,9 -1.3,3 -1.2,4.5 -2.4,7.4 -1.1,2.6 -2.8,6.1 -4.5,9.2 -1.7,3.1 -3.2,5.8 -3.8,7.1 -0.8,1.7 -0.9,3.7 -0.9,5.8 0,2.2 0.3,4.6 0.4,6.1 l 0.1,0.8 -0.7,0.5 c -5,3.7 -15.9,13.7 -15.9,32 0,1.8 0.1,3.8 0.4,5.9 l 0.1,0.5 -0.4,0.4 c -5.9,7.4 -31.6,39.8 -39.4,59.8 -0.4,1.2 -1.4,2.2 -2.4,4.2 -0.9,1.8 -1.7,4.2 -1.8,7.4 v 0.1 c 0,0.1 0,0.3 0,0.4 0,3.8 1.2,7.8 5.7,11.8 l 1.6,1.4 0.3,0.3 c 0.3,0.1 0.4,0.3 0.7,0.5 0.4,0.3 1.1,0.8 2,1.3 5.7,3.8 18.1,12.6 24.1,26.4 v 0 0 c 0,0.1 0.1,0.3 0.1,0.5 0.3,0.7 0.3,0.7 0.9,1.3 0.5,0.4 0.3,0.1 0.7,0.3 0.5,0.1 0.9,0.1 1.7,0.3 2,0.3 4.9,0.5 5.5,0.5 h 0.4 c 0.3,0 0.5,-0.1 0.8,-0.3 l 0.8,-0.3 0.7,0.7 c 0.3,0.3 0.4,0.4 0.7,0.7 2.9,2.9 8,5.7 17.2,5.9 v 0 c 0,0 0.1,0 0.1,-0.1 v 0 -0.1 l -1.4,-0.8 c -1.6,-1.2 -4.2,-4.2 -7.1,-11.6 l -0.4,-1.1 1.1,-0.5 c 5.9,-3.2 14.6,-7.1 24.599998,-9.6 l 0.4,-0.1 0.4,0.3 c 2.8,1.3 5.4,2.9 7,4.7 l 0.5,0.7 -0.3,0.8 c 0,0 -0.7,1.8 -1.4,4.9 -0.8,3 -1.4,7.4 -1.4,12.2 0,3 0.3,6.2 1.1,9.3 l 0.1,0.8 -0.7,0.5 c 0,0 -0.4,0.3 -0.9,0.8 -0.5,0.5 -1.4,1.2 -2.2,2.1 -1.8,1.8 -3.799998,4.5 -4.999998,7.4 l -0.1,0.4 -0.4,0.3 c -0.4,0.3 -0.8,0.4 -1.2,0.7 l -1.3,0.7 -0.5,-1.3 c -0.5,-1.2 -1.1,-2.2 -1.4,-3.4 -1.7,-4.5 -2.6,-8.3 -3,-9.7 v 0 l -0.1,-0.5 c 0,0 0,0 -0.1,0 v 0 c -3,6.1 -3.9,11.3 -3.9,15.7 v 0 c 0,0.8 0,1.6 0.1,2.4 l 0.1,2.1 -2,-0.8 c -0.3,-0.1 -0.7,-0.3 -1.1,-0.3 v 0 c -0.1,0 -0.4,0 -0.7,0.1 -1.1,0.1 -1.7,1.1 -2,1.6 -0.4,0.7 -0.4,1.1 -0.4,1.2 v 0 0 0 0 0 0.1 c 0,0.1 -0.1,0.4 -0.1,0.8 -0.1,0.7 -0.3,1.6 -0.4,2.8 -0.3,2.4 -0.5,5.5 -0.5,8.8 0.1,6.1 0.7,13 5.1,17.8 6.8,6.8 18.999998,19.2 19.599998,20 v 0 l 0.1,0.1 c 0.1,0.1 1.7,1.6 4.5,2.6 l 1.6,0.5 -0.9,1.4 c -1.8,2.6 -2.8,5.8 -2.9,9.1 0,0.1 0,0 0,0.1 v 0 0.1 c 0,4.5 1.8,8.7 4.9,11.6 l 0.5,0.5 c 37.9,37 88.2,61.9 144,68.1 l 0.8,0.1 0.3,0.8 c 3.9,10.4 14,17.8 25.8,17.8 11.7,0 21.7,-7.4 25.7,-17.8 l 0.3,-0.8 0.8,-0.1 c 56.1,-6.1 106.6,-30.9 144.8,-68.2 l 0.1,-0.1 c 0,0 1.3,-1.4 2.6,-3.7 1.3,-2.2 2.6,-5 2.6,-8.2 0,-0.1 0,-0.1 0,-0.1 -0.1,-3.2 -0.9,-6.3 -2.6,-9 l -0.9,-1.4 1.7,-0.5 c 3.2,-0.9 5.3,-2.6 6.5,-4.1 0.4,-0.5 0.7,-0.9 1.1,-1.6 1.2,-2.4 3.2,-6.8 5.1,-11.2 2,-4.3 4.2,-8.7 5.7,-10.4 1.7,-2.2 6.7,-5.7 6.8,-11.6 0,-0.3 0,-0.4 0,-0.5 -0.1,-2.4 -1.1,-4.5 -2,-6.3 -0.4,-0.9 -0.8,-1.7 -1.2,-2.2 -0.1,-0.1 -0.1,-0.3 -0.3,-0.4 l -0.4,-0.5 0.3,-0.7 c 0.8,-1.8 1.7,-4.7 1.7,-8.7 v 0 c 0,-3.8 -0.8,-8.4 -3.4,-13.7 v 0 0 0 0 0 0.1 c 0,0.1 -0.1,0.3 -0.1,0.5 -0.1,0.5 -0.3,1.2 -0.5,2 -0.4,1.6 -1.2,3.8 -2.1,6.3 -0.8,2.1 -1.7,4.2 -2.9,6.3 l -0.7,1.3 -1.2,-0.9 c -14.7,-10.8 -16.3,-28.3 -16.3,-35.7 0,-2.2 0.1,-3.7 0.1,-3.7 l 0.1,-0.8 0.8,-0.3 c 5.3,-2.1 10.8,-2.9 16.1,-2.9 4.3,0 8.6,0.5 12.2,1.3 h 0.3 l 0.3,0.1 c 0.7,0.5 1.3,0.9 1.8,1.4 0.3,0.3 0.7,0.5 1.1,0.7 l 0.9,0.7 -1.1,0.8 c -2,4.1 -3.8,7 -5.4,8.8 -1.3,1.6 -2.5,2.6 -3.3,3.2 -0.4,0.3 -0.7,0.5 -0.9,0.7 -0.1,0 -0.1,0.1 -0.3,0.1 h -0.3 v 0 h -0.1 0.1 c 0,0 0,0 0.1,0 v 0 c 9.5,-0.8 15.7,-3.3 19.9,-6.1 l 0.5,-0.3 0.5,0.1 c 0.5,0.1 1.1,0.3 1.7,0.3 0.4,0 0.8,0 1.2,0 0.1,0 0.1,0 0.1,0 v 0 c 3.4,0 7,-1.4 9.6,-4.5 9.7,-10.9 24.6,-20.9 30.9,-27.6 2.2,-2.4 3.4,-5.3 3.7,-8.2 v 0 z"
     id="path877" /><path
     class="st1"
     d="m 522.30493,250 c 0,0 -0.9,3.8 -11.6,-3.2 0,0 6.5,8.3 11.1,9.5 4.9,1.4 2.2,-5 0.5,-6.3 z m -9.7,-15.6 c 0,0 -0.1,4.6 -9.1,1.4 0,0 4.3,6.7 10.5,8 6.5,1.4 2.2,-5.6 -1.4,-9.4 z m -3.7,-5.8 c -6.8,-9.2 -10.3,-12.5 -12.9,-29.8 -2.4,-15.4 -35.7,0 -35.7,0 -16.5,4.1 -22.8,-0.1 -25.1,-3.3 0,-0.1 -0.7,-0.5 -0.3,0.3 9.1,20 28.8,9.6 28.8,9.6 l 3.7,3.7 c -0.9,-2.1 -1.1,-5.3 -0.4,-9.7 0.8,-0.3 2.1,-0.8 3.6,-1.2 0.9,1.2 1.1,2 1.1,3.8 0.1,1.8 -0.9,4.2 -0.9,5.8 0,1.4 1.1,2.1 1.1,2.1 3.8,-2.2 6.6,-7.6 8,-11.1 0.9,0.3 2,0.5 2.9,0.9 -1.8,9.5 -8.2,13.7 -11.8,12.6 -0.1,0 -0.4,-0.1 -0.5,-0.1 -11.6,5.3 -4.7,6.7 -4.7,6.7 9.6,0 18.3,-6.6 18.3,-6.6 3.2,1.6 6.6,9.3 6.6,9.3 3.6,0.4 9.6,3.6 9.6,3.6 5.7,5.9 8.6,3.4 8.6,3.4 z m -408.2,42.6 c -0.3,-1.4 -22.599998,4.5 -40.899998,19.4 0,0 -4.1,3.2 -3.8,4.6 0.5,2.8 3.8,1.1 4.6,0.1 14.1,-13.9 40.299998,-22.6 40.099998,-24.1 z m 261.6,139 6.5,13.7 8.4,14.9 v 0.1 l -22.6,-25.1 -4.9,2.2 18,38.6 5.1,-2.4 -6.6,-14.2 -6.8,-12.6 -1.4,-2.4 v -0.1 l 22.9,25.5 4.7,-2.2 -18,-38.6 z M 48.704932,239.2 c -2.1,3.4 -3.8,6.3 -5.5,9.6 v 0 c -1.8,3.6 -4.9,9.3 -6.2,11.8 3.4,0.7 7.1,0 11.1,-2.9 0.4,-11.1 11.1,-34.2 11.1,-34.2 -3.2,3.9 -7.8,11.1 -10.5,15.7 z m 18.4,62.2 c 0,0 -3.3,2.8 -3.2,3.9 0.4,2.4 3,0.8 3.7,0.1 11.5,-12 32.399998,-19.6 32.3,-20.8 -0.3,-1.3 -18.2,4 -32.8,16.8 z m 143.099998,-184.2 15.7,-6.7 -23.3,-54.2 -15.7,6.7 0.3,0.7 z m 118.6,-42.7 13.7,39.2 15.5,5.3 19,-56 -16.1,-5.4 -10.5,31.1 -13.7,-39.2 -15.5,-5.3 -19,56 16.1,5.4 z m -67.7,29.7 v 0 c 1.2,0 2.4,0 3.6,-0.1 17.5,-1.6 29.5,-14.6 29.5,-31.7 0,-1.2 0,-2.4 -0.1,-3.6 -1.6,-16.6 -16.3,-27.3 -31.9,-27.3 -1.1,0 -2.1,0 -3.2,0.1 -15.8,1.4 -29.6,14 -29.6,30.3 0,0.9 0,1.8 0.1,2.8 1.5,17.7 14.7,29.5 31.6,29.5 z m -0.7,-46.3 c 0.5,0 0.9,-0.1 1.4,-0.1 v 0 c 7.6,0 14.2,5.8 14.9,12.6 v 0 c 0,0.5 0.1,1.2 0.1,1.7 0,8.4 -5.9,14.9 -13.6,15.5 -0.5,0 -0.9,0 -1.4,0 -7.6,0 -14.2,-5.8 -15,-14.5 0,-0.4 0,-0.8 0,-1.1 -0.1,-6.7 5.8,-13.4 13.6,-14.1 z m 108.4,61.3 c 2.6,7 7,13.2 13.3,17.5 4.3,3 9.6,5 15,5 0.7,0 1.3,0 2,-0.1 6.3,-0.7 11.1,-4.9 14.3,-9.7 2.1,-3 3,-6.1 3,-8.8 0,-4.7 -2.5,-9.1 -5.8,-13.2 l -2.5,-3 c -0.9,-1.2 -1.8,-2.4 -2.4,-3.6 -0.3,-0.7 -0.4,-1.3 -0.4,-1.8 0,-1.7 1.3,-2.6 3.3,-2.6 1.1,0 2.4,0.4 3.6,1.2 2.9,2 4.6,5 5.5,8.4 l 0.3,0.9 13.6,-7.2 -0.3,-0.7 c -2.6,-5.5 -7.4,-11.2 -12.5,-14.7 v 0 c -3.9,-2.8 -8.3,-4.1 -12.4,-4.1 -6.2,0 -12,3 -16.1,9 -2.4,3.4 -3.4,6.6 -3.4,9.3 0,5 3.2,9.1 7,13.8 1.6,1.8 4.2,5 4.2,7.4 0,0.7 -0.1,1.2 -0.5,1.7 -0.9,1.3 -2.1,1.8 -3.4,1.8 -1.3,0 -2.9,-0.5 -4.2,-1.4 -4.1,-2.8 -5.9,-7.4 -7.1,-12.1 l -0.2,-1.1 -14.1,7.2 z m -196.3,24.8 26.9,-22 -9.3,-11.5 -13.7,11.2 -28,-34.2 -13.2,10.8 0.5,0.7 z m 345.6,114.4 c 10.1,11.1 10.3,3.9 10.3,3.9 -2.4,1.7 -10.3,-3.9 -10.3,-3.9 z m 28.3,20.6 c 0,-5 -2,-9.7 -4.6,-14.7 v 0 0 0 0 c -12,-22.8 -27.9,-46.7 -32.5,-52.4 -0.8,-1.3 -1.8,-4.5 -2.2,-8 -0.4,-3.8 -0.3,-7.6 -0.5,-10 -0.3,-2.2 -1.4,-3.7 -2.8,-5.5 -1.3,-1.8 -3,-3.9 -4.7,-6.3 -2.5,-3.4 -5.1,-7.2 -7.2,-10.3 -2.1,-3 -3.7,-5.4 -3.8,-5.7 -1.1,-1.7 -2,-3.2 -2.2,-3.7 0,-0.1 -0.1,-0.3 -0.1,-0.4 0.3,-1.6 0.7,-4.2 0.7,-7.4 0,-0.1 0,-0.1 0,-0.3 0,-9 -3.6,-23.4 -20,-32.8 -3.8,-2.2 -7.4,-4.3 -10.4,-6.2 3.2,-3.2 5.1,-7.6 5.1,-12.2 v 0 -0.1 0 c 0,-4.9 -2,-9.5 -5.4,-12.6 l -0.5,-0.5 c -44.2,-43.2 -105.1,-69.9 -171.9,-69.9 v 0 c 0,0 0,0 -0.1,0 v 0 h -0.1 c -67,0 -127.7,26.7 -172.2,70 l -0.1,0.1 c -3.4,3.3 -5.5,7.8 -5.5,12.8 v 0 c 0,0 0,0 0,0.1 v 0 c 0,3.3 1.1,6.6 2.8,9.3 -2,1.1 -4.6,2.4 -7.1,3.9 -4.099998,2.6 -8.299998,5.5 -10.099998,9.5 -1.4,3.3 -1.3,4.7 -2.4,7.4 -0.9,2.5 -2.8,5.9 -4.3,9 -1.7,3 -3.2,5.7 -3.8,7.1 -0.9,2 -1.1,4.1 -1.1,6.3 0,2.4 0.3,4.7 0.5,6.2 -5.3,3.8 -16.5,14.2 -16.5,33.2 0,2 0.1,3.9 0.4,6.1 -5.9,7.5 -31.6,39.8 -39.6,60.2 -0.5,1.4 -4.2,5.3 -4.2,12 v 0.1 c -0.1,4.2 1.3,8.8 6.1,13.3 l 1.6,1.4 0.3,0.3 c 0.1,0.1 0.8,0.7 2.9,2 5.8,3.6 18,12.4 23.8,25.7 0,0.1 0.1,0.4 0.3,0.7 0.3,0.4 0.4,0.9 1.2,1.7 0.7,0.5 0.8,0.4 1.1,0.5 0.7,0.1 1.2,0.3 2,0.4 2.2,0.3 5.7,0.5 5.7,0.5 h 0.5 c 0.4,0 0.8,-0.1 1.2,-0.3 0.3,0.3 0.4,0.5 0.7,0.7 3.2,3 8.7,6.1 18.2,6.3 v 0 c 0.7,0 1.3,-0.5 1.4,-1.2 0.1,-0.7 -0.4,-1.3 -1.2,-1.6 v 0 c -0.4,-0.1 -3.8,-1.8 -7.6,-11.6 5.9,-3.2 14.3,-7.1 24.199998,-9.5 2.6,1.3 5.1,2.8 6.5,4.5 0,0 -5.1,13 -2,27.3 0,0 -6.2,4.3 -8.699998,10.9 -0.4,0.3 -0.8,0.4 -1.2,0.7 -0.5,-1.2 -0.9,-2.2 -1.4,-3.3 -2.1,-5.5 -3,-10 -3,-10 -0.1,-0.5 -0.7,-1.1 -1.2,-1.1 -0.5,-0.1 -1.2,0.3 -1.4,0.8 -3,6.3 -4.1,11.7 -4.1,16.3 0,0.8 0,1.6 0.1,2.4 -0.4,-0.1 -0.9,-0.3 -1.6,-0.3 -0.3,0 -0.5,0 -0.9,0.1 -1.6,0.3 -2.5,1.4 -2.9,2.2 -0.4,0.8 -0.5,1.3 -0.7,1.6 v 0.1 c 0,0 -1.2,6.1 -1.2,12.9 0.1,6.2 0.7,13.6 5.5,18.7 7.1,7.1 19.699998,20.1 19.699998,20.1 l 0.1,0.1 c 0.1,0.1 2,1.8 4.9,2.9 -2,2.8 -3,6.3 -3,9.9 0,0 0,0 0,0.1 v 0 c 0,4.9 2,9.5 5.4,12.6 l 0.5,0.5 c 38.2,37.3 88.6,62.3 144.8,68.5 4.1,10.9 14.6,18.7 27,18.7 12.4,0 22.8,-7.8 27,-18.6 56.3,-6.1 107.2,-31.1 145.6,-68.7 l 0.1,-0.1 c 0.1,-0.1 1.3,-1.6 2.8,-3.8 1.3,-2.2 2.8,-5.3 2.8,-8.8 0,-0.1 0,-0.1 0,-0.1 -0.1,-3.4 -1.1,-6.8 -2.9,-9.6 3.4,-1.1 5.7,-2.9 7.1,-4.6 0.5,-0.7 0.8,-1.1 1.2,-1.8 1.3,-2.5 3.2,-6.8 5.1,-11.2 2,-4.3 4.2,-8.7 5.5,-10.1 1.3,-1.8 7,-5.7 7.1,-12.4 0,-0.3 0,-0.4 0,-0.7 -0.1,-2.6 -1.2,-4.9 -2.1,-6.8 -0.4,-0.9 -0.9,-1.7 -1.2,-2.2 -0.1,-0.1 -0.1,-0.3 -0.3,-0.4 0.8,-2 1.8,-5 1.8,-9.2 0,-3.9 -0.9,-8.8 -3.6,-14.3 -0.3,-0.5 -0.8,-0.8 -1.4,-0.8 -0.5,0.1 -1.1,0.5 -1.2,1.1 0,0 -0.8,3.9 -2.6,8.8 -0.8,2 -1.7,4.1 -2.8,6.2 -18.4,-13.4 -15.7,-38.2 -15.7,-38.2 9.5,-3.8 19.5,-3.2 27.5,-1.6 0.7,0.5 1.3,0.9 2,1.4 0.4,0.3 0.7,0.5 1.1,0.7 -1.8,4.1 -3.7,6.7 -5.3,8.6 -1.3,1.6 -2.4,2.4 -3,2.9 -0.4,0.3 -0.7,0.4 -0.8,0.5 -0.1,0 -0.1,0.1 -0.1,0.1 v 0 c -0.7,0.3 -1.1,0.9 -0.9,1.6 0.1,0.7 0.7,1.1 1.3,1.1 h 0.1 c 9.6,-0.8 16.2,-3.4 20.5,-6.2 0.7,0.1 1.2,0.3 1.8,0.3 0.4,0 0.8,0 1.3,0 0.1,0 0.1,0 0.1,0 3.8,0 7.6,-1.6 10.5,-4.9 9.5,-10.7 24.4,-20.8 30.8,-27.6 2.2,-3.9 3.6,-7.6 3.6,-11.4 z m -429.4,-181.7 0.4,-0.4 c 42.7,-41.6 101,-67.3 165.4,-67.3 h 0.3 c 64.4,0 122.7,25.7 165.4,67.3 l 0.4,0.4 c 1.4,1.4 2.4,3.4 2.4,5.7 0,2.1 -0.8,4.1 -2.4,5.5 l -4.5,4.3 c -0.9,0.9 -1.3,2.1 -1.3,3.4 0,0.4 0,0.8 0.1,1.1 v 0 c 0.5,2.2 0.8,4.5 0.8,6.7 0,15.9 -12.9,28.7 -28.7,28.7 -2.1,0 -4.2,-0.3 -6.2,-0.7 v 0 h -0.4 c -0.4,-0.1 -0.8,-0.1 -1.2,-0.1 -1.3,0 -2.5,0.5 -3.4,1.4 h -0.1 l -3.9,3.9 c -1.4,1.4 -3.4,2.5 -5.7,2.5 -2.2,0 -4.2,-0.9 -5.7,-2.5 -15.3,-15.3 -33.8,-27.3 -54.6,-34.9 -16.1,-5.9 -33.3,-9.2 -51.3,-9.2 -18,0 -35.3,3.3 -51.3,9.2 -20.8,7.6 -39.4,19.6 -54.6,34.9 -1.4,1.6 -3.4,2.5 -5.7,2.5 -2.2,0 -4.2,-0.9 -5.7,-2.5 l -3.9,-3.9 -0.1,-0.1 c -0.9,-0.9 -2.1,-1.4 -3.4,-1.4 -0.4,0 -0.8,0 -1.2,0.1 h -0.3 v 0 c -2,0.4 -4.1,0.7 -6.2,0.7 -15.8,0 -28.7,-12.9 -28.7,-28.7 0,-2.4 0.3,-4.6 0.8,-6.7 v 0 c 0.1,-0.4 0.1,-0.7 0.1,-1.1 0,-1.3 -0.4,-2.5 -1.3,-3.4 l -4.5,-4.3 c -1.4,-1.4 -2.4,-3.4 -2.4,-5.5 0.2,-2.2 1.1,-4.3 2.6,-5.6 z m 297.5,72.9 c 0,0 0.4,12.6 9.2,17.6 -3.3,0 -15,1.8 -9.2,-17.6 z m 5,90.7 c 0,37.8 -15.3,71.9 -40,96.6 -24.7,24.7 -58.8,40 -96.6,40 -37.8,0 -71.9,-15.3 -96.6,-40 -24.7,-24.7 -40,-58.8 -40,-96.6 0,-37.8 15.3,-71.9 40,-96.6 24.7,-24.7 58.8,-40 96.6,-40 37.8,0 71.9,15.3 96.6,40 24.7,24.7 40,58.9 40,96.6 z M 80.104932,323.2 c -6.1,-0.9 -9.6,-3 -11.8,-5.1 -0.3,-0.3 -0.1,-0.3 -0.4,-0.4 l 0.8,-0.5 c 0,0 1.4,-1.1 4.1,-2.6 0.5,-0.4 1.2,-0.7 1.8,-1.1 2.1,4.7 4,7.9 5.5,9.7 z m 9.8,13.6 c 1.3,4.9 4.2,13 9,19 -1.2,0.7 -3.7,1.7 -6.3,1.7 -1.1,0 -2.2,-0.1 -3.3,-0.7 -0.8,-2 -1.6,-4.9 -1.6,-8.8 0.1,-3.1 0.6,-6.9 2.2,-11.2 z M 108.30493,366 c 0,0 -0.8,1.6 -0.4,4.3 0,0 -7.1,-1.2 -8.699998,-3.9 0,0 0.4,6.7 1.599998,11.8 0,0 -9.499998,-10.3 -10.699998,-13.4 0,0 0.8,13 4.7,20.1 0,0 -9.2,-6.7 -8.6,-25.3 v 0 c 1.1,0.5 2.1,0.9 3.2,1.2 v 0 c 0.5,0.1 0.9,0.3 1.4,0.3 0.1,0 0.1,0 0.3,0 0.5,0 0.9,0.1 1.3,0.1 3.9,0 7.2,-1.6 8.599998,-2.4 0.8,0.1 1.6,0.1 2.2,0.1 4.1,0 6.8,-1.7 8.3,-3.6 0.5,-0.7 1.1,-1.3 1.3,-2 1.4,0.3 2.9,0.4 4.2,0.4 6.1,0 10.3,-2.5 12.9,-5 1.7,-1.6 2.9,-3.3 3.4,-4.2 10.5,-2.5 13.2,-11.2 13.2,-11.5 l 0.1,-0.3 v -0.3 c -1.6,-23.8 -12.1,-34.1 -12.4,-34.4 l -0.4,-0.4 -0.5,-0.1 c -4.7,-1.1 -9.5,-1.6 -14.1,-1.6 -1.1,0 -2.1,0 -3.3,0.1 -0.3,0 -0.5,0 -0.8,0 -1.1,0 -2.1,0.1 -3.2,0.3 v 0 c -1.1,0.1 -2.1,0.3 -3.2,0.4 -0.3,0 -0.5,0.1 -0.8,0.1 -1.1,0.1 -2,0.3 -3,0.5 v 0 c -1.1,0.1 -2,0.4 -3,0.7 -0.3,0 -0.5,0.1 -0.8,0.1 -0.9,0.3 -1.799998,0.4 -2.799998,0.7 v 0 c -0.9,0.3 -1.8,0.5 -2.8,0.8 -0.3,0.1 -0.5,0.1 -0.7,0.3 -0.9,0.3 -1.7,0.5 -2.6,0.8 v 0 c -0.9,0.3 -1.7,0.7 -2.6,0.9 -0.3,0.1 -0.4,0.1 -0.7,0.3 -0.8,0.3 -1.6,0.7 -2.4,0.9 v 0 c -0.8,0.3 -1.6,0.7 -2.4,1.1 -0.1,0.1 -0.4,0.1 -0.5,0.3 -0.8,0.3 -1.4,0.7 -2.1,0.9 v 0 c -0.7,0.4 -1.4,0.7 -2.1,1.1 -0.1,0.1 -0.4,0.1 -0.5,0.3 -0.7,0.3 -1.2,0.7 -1.8,0.9 h -0.1 c -0.7,0.3 -1.2,0.7 -1.7,0.9 -0.1,0.1 -0.3,0.1 -0.5,0.3 -0.5,0.3 -0.9,0.5 -1.4,0.8 0,0 -0.1,0 -0.1,0.1 -3,1.7 -5.3,3.2 -6.2,3.8 l -7.8,-0.9 c -0.4,-0.9 -0.8,-1.7 -1.3,-2.5 -0.1,-0.1 -0.1,-0.3 -0.3,-0.5 -0.4,-0.8 -0.9,-1.6 -1.3,-2.4 -0.1,-0.1 -0.1,-0.3 -0.3,-0.4 -0.4,-0.8 -0.9,-1.4 -1.4,-2.1 0,0 0,-0.1 -0.1,-0.1 -0.5,-0.8 -1.1,-1.4 -1.6,-2.1 -0.1,-0.1 -0.1,-0.3 -0.3,-0.4 -0.5,-0.7 -1.1,-1.3 -1.6,-2 0,-0.1 -0.1,-0.1 -0.1,-0.3 -0.5,-0.7 -1.1,-1.3 -1.7,-1.8 l -0.1,-0.1 c -0.5,-0.7 -1.2,-1.2 -1.7,-1.8 l -0.3,-0.3 c -0.5,-0.5 -1.2,-1.2 -1.7,-1.7 v 0 l 3,-1.1 c 3.9,-13 17.4,-13.4 17.4,-13.4 -1.6,-9.9 2.4,-17.8 2.4,-17.8 l -7.1,6.3 c -17.5,1.4 -27.5,7.4 -33,12.5 v 0 c -1.3,-1.7 -2,-3.2 -2.4,-4.7 0,-0.1 0,-0.3 -0.1,-0.4 0,-0.1 -0.1,-0.4 -0.1,-0.5 0,-0.1 0,-0.4 -0.1,-0.5 0,-0.1 0,-0.3 0,-0.4 0,-0.3 0,-0.7 0,-0.9 0,-2.5 0.8,-4.7 1.7,-6.3 0.4,-0.8 0.8,-1.4 1.2,-1.8 0.3,-0.4 0.5,-0.7 0.5,-0.7 l 0.3,-0.3 0.1,-0.3 c 3.9,-10.5 14,-25.7 23,-38 9,-12.4 17,-22.1 17,-22.1 l 0.5,-0.7 -0.1,-0.7 c -0.4,-2.5 -0.5,-4.9 -0.5,-7.1 0,-10.4 3.9,-17.6 7.9,-22.4 2,-2.4 3.9,-4.1 5.4,-5.3 0.8,-0.5 1.3,-0.9 1.7,-1.2 0.4,-0.3 0.7,-0.4 0.7,-0.4 l 1.1,-0.5 -0.8,-11.3 c 6.2,-10.8 11.1,-24 12.2,-27.1 1.1,-0.5 2.1,-1.1 2.999998,-1.7 0.3,-0.1 0.7,-0.4 0.9,-0.5 0.7,-0.4 1.3,-0.8 2,-1.2 0.4,-0.3 0.7,-0.4 1.1,-0.7 0.5,-0.4 1.2,-0.7 1.7,-1.1 0.3,-0.3 0.7,-0.4 0.9,-0.7 0.5,-0.4 1.1,-0.7 1.6,-1.1 0.3,-0.1 0.5,-0.4 0.8,-0.5 0.5,-0.4 1.1,-0.7 1.4,-1.1 0.1,-0.1 0.4,-0.3 0.5,-0.4 1.2,-0.9 2.2,-1.7 3.2,-2.4 l 1.1,1.1 c -0.5,2.4 -0.7,4.7 -0.7,7.1 0,0 0,0 0,0.1 -4.1,2.1 -8.6,4.1 -13.4,5.8 l -7.499998,14.7 c 0,0 9.499998,-0.8 12.199998,12.6 0,0 5.8,-8.2 15,-12.9 0.4,0.5 0.8,1.2 1.3,1.7 -4.1,2.9 -8.2,7.1 -10,13.2 l 3.6,1.6 c 0,0 6.2,-5 13.6,-7.9 1.3,1.1 2.8,1.8 4.3,2.8 -4.5,2.5 -9.3,5.7 -11.2,8.3 l 2.4,2.4 c 0,0 10.7,-5.9 12.6,5.5 2,11.5 -10.3,13.4 -13.8,13.4 0,0 0.4,4.3 4.7,8.7 0,0 -9.5,7.5 -22.9,0 -13.399998,-7.5 -17.999998,-6.6 -29.499998,-3.8 0,0 -4.2,5.9 -1.7,13 -2.6,2.5 -3.9,2.2 -6.7,10 -1.2,5 -6.3,8.6 -6.3,8.6 0,0 13.8,1.2 25.3,-11.5 0,0 8.7,9.5 21.699998,-6.7 0,0 10.3,9.1 26.9,-1.2 0,0 -7.9,8.7 -21.7,8.3 0,0 6.7,6.3 9.1,12.6 0,0 -5.1,-4.7 -17.4,-5.9 0,0 1.6,9.1 7.1,14.6 0,0 -7.1,-5.9 -20.099998,-3.6 0,0 11.499998,16.6 28.799998,18.2 0,0 -6.7,2.4 -9.9,5.9 0,0 6.7,4.3 17,0.8 0,0 -10.7,5.9 -15.4,7.9 0,0 7.1,2.4 22.5,-2.4 0,0.8 0,1.4 0,2.2 0,0.7 0,1.2 0,1.8 -0.3,2.8 -0.8,6.6 -2.8,10.1 0,0 -7.1,-6.3 -14.2,-7.9 0,0 8.3,11.5 3.6,24.5 0,0 2.9,4.6 14.6,4.1 0.9,0 1.7,0 2.4,0 3.4,15.4 9.3,29.9 17.2,43.2 -2.6,0.9 -4.9,1.6 -6.3,1.7 l 7.1,3.9 c 0,0 -11.5,3.9 -16.6,4.7 0,0 2.8,2.8 5.1,4.3 0,0 -13.8,6.3 -19.4,5.9 0,0 3.2,3.2 4.7,3.6 0,0 -9.1,2.4 -11.8,0.8 l -0.8,6.3 c -0.1,0.4 -8,1.2 -10,-1.6 z m 12,-57.9 c 1.2,-1.3 4.2,-1.4 5.5,-0.5 3,2.4 0.8,4.5 -1.6,9 -3.8,7.2 1.3,12.4 -2.5,19.6 -3.8,7.4 -8.4,9.3 -10.1,8 -2.5,-2 1.2,-5.9 2.5,-9.2 2.6,-6.8 -3.4,-16.8 6.2,-26.9 z M 97.104932,198.7 c 0,0 0.1,-0.1 0.4,-0.1 0.8,0.3 1.4,0.5 2,0.7 1.099998,8 -0.4,11.8 -3.8,12.9 -3.7,1.1 -10,-3 -11.8,-12.6 0.8,-0.3 1.7,-0.5 2.6,-0.8 1.2,3.7 3.8,9.5 7.4,11.6 0,0 0.8,-0.4 0.7,-1.3 -0.3,-2.9 -1,-8.8 2.5,-10.4 z M 449.90493,423.4 c -0.3,0.4 -1.1,1.2 -1.2,1.6 -39,40.3 -92,62.5 -146.7,66.7 -0.8,10 -9.1,17.9 -19.4,17.9 -10.1,0 -18.6,-7.9 -19.4,-17.9 -54.6,-4.2 -107.7,-26.5 -146.7,-66.7 -0.3,-0.3 -0.9,-1.2 -1.2,-1.6 -1.1,-1.3 -1.3,-2.6 -1.3,-4.5 0,-2.8 2,-4.9 3.6,-6.5 1.6,-1.6 3.4,-3.4 3.4,-3.4 0,0 0.8,-0.9 1.1,-1.8 0.3,-0.9 0.1,-1.8 0,-2.1 -0.7,-2.2 -0.9,-4.6 -0.9,-7.1 0,-15.7 12.6,-28.4 28.3,-28.4 2.4,0 4.7,0.3 7,0.9 0.4,0.1 0.9,0.1 2.1,0 1.4,-0.3 1.8,-0.9 2.2,-1.3 0.4,-0.4 2.4,-2.6 4.2,-4.3 1.8,-1.7 3.6,-3 6.1,-3 2.9,0 4.9,1.6 6.7,3.7 13.3,13.8 29.2,24.2 46.6,31.3 17.8,7.6 37.4,11.8 57.9,11.8 20.5,0 40.2,-4.2 57.9,-11.7 17.4,-7.1 33.3,-17.5 46.7,-31.5 1.8,-2.1 3.9,-3.7 6.7,-3.7 2.5,0 3.9,1.1 6.1,3 2.2,2 3.7,3.7 4.2,4.3 0.5,0.7 0.8,1.1 2.2,1.3 0.9,0.3 1.7,0.1 2.1,0 2.2,-0.5 4.6,-0.9 7,-0.9 15.7,0 28.3,12.8 28.3,28.4 0,2.5 -0.4,4.9 -0.9,7.1 -0.1,0.4 -0.3,1.2 0,2.1 0.3,0.9 1.1,1.8 1.1,1.8 0,0 2.1,2.1 3.4,3.4 1.3,1.4 3.6,3.8 3.6,6.5 0.5,2 0.3,3.3 -0.8,4.6 z m 28.1,-83.1 c 1.3,3.6 1.7,6.7 1.7,9.3 0,3.2 -0.7,5.7 -1.2,7.2 -0.1,0.1 -0.1,0.4 -0.3,0.5 l -1.3,0.4 c -1.3,0.4 -3.7,0.7 -4.9,0.7 -1.1,0 -2.4,-0.3 -3.4,-0.5 5,-4.8 7.9,-12.7 9.4,-17.6 z m -6.2,22.1 c 1.7,0 3.3,-0.1 4.9,-0.4 0.5,0.9 1.2,2.2 1.8,4.2 1.1,4.6 -0.9,4.9 -2,5.4 -11.6,4.6 -12,19.7 -18.7,17 -8,-3.3 1.7,-25.4 1.7,-25.4 0,0 -15.7,5.8 -19,3.3 -3.3,-2.5 2.8,-9.5 2.8,-9.5 0,0 -13.6,3.4 -16.3,1.4 -2.7,-2 2,-9 2,-9 0,0 -9.3,4.5 -13.4,2.2 -4.2,-2.2 3.9,-10 3.9,-10 0,0 -8.8,3.7 -11.6,1.4 -0.7,-0.5 -0.8,-1.4 -0.7,-2.4 3.8,-5.8 7.1,-12 10,-18.3 0,0 0,0 0,0.1 -0.1,0.5 -0.3,1.2 -0.3,1.7 v 0 c -0.3,2 -0.5,4.1 -0.5,6.1 0,3.7 0.7,7.2 2.9,9.9 3.3,3.7 11.7,9 21.9,13.7 9.8,4.7 21.4,8.6 30.6,8.6 z m -14.8,-10.7 c -0.3,0.3 -10.4,-2.4 -16.1,-12.8 -5.7,-10.4 2.8,-11.7 -3.8,-16.5 -6.6,-4.7 -7.8,-10.9 -2.4,-12.8 2.8,-0.9 5.1,-0.5 9.9,2.4 4.7,2.8 3.8,7.5 4.2,21.2 0.7,13.8 8.5,18.2 8.2,18.5 z m 24.5,-27.2 c 1.8,-2 4.1,-5.1 6.3,-9.9 2.8,1.8 5.8,3.4 8.8,4.2 -3.1,2.3 -8,4.5 -15.1,5.7 z m 58.5,-44.6 v 0 c 0,0.3 -0.1,0.7 -0.1,0.9 l -4.5,-3.7 -2.4,2.4 c -11.2,-9.6 -20.5,-7.2 -20.5,-7.2 l -11.2,7.2 c 15.3,0.9 18.7,11.7 19,20.5 v 0 c -1.1,0.9 -2.2,1.8 -3.3,2.9 -0.1,0.1 -0.3,0.3 -0.4,0.3 -1.1,0.9 -2.1,1.8 -3,2.8 -0.1,0.1 -0.1,0.1 -0.3,0.3 -1.1,0.9 -2,2 -3,2.9 -0.3,0.3 -0.4,0.4 -0.7,0.7 -0.9,1.1 -2,2 -2.9,3 -1.8,2.1 -3.7,2.8 -5.9,2.8 -3.3,0 -7.4,-1.8 -11.3,-4.5 -0.9,-0.5 -1.8,-1.2 -2.6,-1.8 -4.7,-3.4 -8.7,-7 -11.7,-8.3 -3.3,-1.3 -11.5,-3.3 -21.3,-3.3 -0.7,0 -1.3,0 -1.8,0 -0.3,0 -0.7,0 -0.9,0 -0.4,0 -0.7,0 -1.1,0 -0.4,0 -0.8,0 -1.2,0.1 -0.3,0 -0.4,0 -0.7,0 -0.5,0 -0.9,0.1 -1.4,0.1 -0.1,0 -0.3,0 -0.5,0 -0.5,0 -1.1,0.1 -1.6,0.3 -0.1,0 -0.1,0 -0.3,0 -0.7,0.1 -1.2,0.1 -1.8,0.3 h -0.1 c -6.5,1.2 -13.2,3.6 -19,8 0.7,-2.1 1.3,-4.1 1.8,-6.2 8.2,-3.9 21.5,-8.2 39.9,-6.1 0,0 -11.3,-3.6 -28.6,-2.5 l -2.9,-3.6 c 0,0 -2.8,1.4 -6.3,4.2 0.4,-1.6 0.7,-3.2 0.9,-4.6 4.3,-2.8 9,-3.9 9,-3.9 l 3.2,-10.4 c -0.9,-0.1 -4.6,-1.8 -9.9,-4.7 0.1,-1.8 0.1,-3.7 0.1,-5.7 7.2,3.2 13.3,5.9 15.8,7.1 0,0 -2.4,-7.6 11.2,-9.2 0,0 -12.6,-2.1 -27.1,-5 0,-1.1 -0.1,-2.1 -0.1,-3.2 18.2,2.2 36.2,1.4 47.3,-6.7 0,0 -9.6,2 -20.5,1.2 0,0 10.4,-3.2 18.8,-13.3 0,0 -9.6,4.9 -24.1,3.6 0,0 14.5,-7.2 18.8,-13.7 0,0 -17.2,6.8 -29.4,6.8 0,0 11.2,-4.5 16.1,-9.2 l -14.7,1.2 3.9,-6.1 c 0,0 -19.4,-5.7 -23.3,-21.7 l 7.1,0.9 c 0,0 -5.9,-21.6 6.8,-27.8 -1.6,-1.6 -13,-4.9 -13,-4.9 0,0 13.3,-0.9 19.2,1.6 0,0 -1.1,-2.1 -4.1,-4.2 -2.9,-2.2 -7,-3.6 -7,-3.6 0,0 14.9,-0.8 19.2,3.6 0,0 -4.5,-8 -8,-10.8 0,0 8.8,2.8 14.1,8.8 l 3.6,-0.4 c 0,0 -0.8,-8.4 -4.9,-15.3 0,0 8,6.1 11.6,15.7 0,0 2.9,4.1 10.7,3.2 l -0.1,0.5 0.3,0.7 c 0,0 1.2,2.9 3,6.3 1.8,3.2 4.1,6.7 7.2,8.7 0.4,1.2 1.3,3.6 2.8,6.3 1.8,3.4 4.5,7.2 8.2,9.6 v 0.3 c 0,2.1 0.1,6.2 0.5,10.4 0.5,4.2 1.3,8.4 3.4,11.2 3.8,4.6 20.1,29 31.9,51.5 2.5,4.7 3.9,8.7 3.9,11.8 0.2,0.4 0.2,0.6 0.2,0.9 z m -257.1,-143.4 c -68.7,0 -124.4,55.7 -124.4,124.4 0,68.7 55.7,124.4 124.4,124.4 68.7,0 124.4,-55.7 124.4,-124.4 0,-68.7 -55.8,-124.4 -124.4,-124.4 z m 71.7,197.9 h -122.7 v -16.3 h 5.5 c 6.1,0 10.8,-5 10.8,-10.9 l -0.1,-105.3 c 0,-6.1 -4.9,-10.9 -10.9,-10.9 h -5.1 v -12.4 h 71.2 V 191 h -5.7 c -6.1,0 -10.9,5 -10.9,10.9 v 112.7 h 35.5 c 4.9,0 9.2,-4.7 8.8,-9.6 -0.1,-1.4 -0.3,-3.7 -0.3,-5.3 0,-9.3 5.4,-17.6 13.6,-21.7 l 8,8 c -4.2,3.8 -6.8,9.3 -6.8,15.5 0,7.2 3.7,13.6 9.2,17.4 z M 64.204932,295.8 c 0,0 -3.7,3 -3.4,4.3 0.4,2.6 3.4,0.9 4.2,0.1 12.9,-13.3 36.299998,-21.7 36.099998,-23 -0.3,-1.4 -20.399998,4.4 -36.899998,18.6 z m 353.999998,122.1 -24.2,-28.8 -4.3,3.7 27.4,32.6 11.6,-9.7 -3.2,-3.8 z m -137.7,11.4 -8.6,42.7 5.5,-0.1 1.4,-8.3 8.4,-0.1 1.7,8.3 5.7,-0.1 -9.9,-42.4 z m 5.9,29.8 -6.7,0.1 3,-21.7 h 0.1 l 2.4,15.4 z m 23.6,-31.9 -18.6,2.2 0.7,4.9 6.6,-0.8 4.6,37.4 5.7,-0.7 -4.6,-37.4 6.3,-0.8 z m -27.1,50.8 c -6.6,0 -11.8,5.3 -11.8,11.8 0,6.6 5.3,11.8 11.8,11.8 6.6,0 11.8,-5.3 11.8,-11.8 -0.1,-6.5 -5.4,-11.8 -11.8,-11.8 z m 0,21.2 c -5.1,0 -9.3,-4.2 -9.3,-9.3 0,-5.1 4.2,-9.3 9.3,-9.3 5.1,0 9.3,4.2 9.3,9.3 -0.1,5.1 -4.2,9.3 -9.3,9.3 z m 51.7,-78.3 c -10.4,3.4 -6.2,16.9 -3.8,24.2 2.4,7.2 6.8,20.7 17.2,17.4 10.4,-3.4 6.2,-16.9 3.8,-24.2 -2.3,-7.4 -6.8,-20.8 -17.2,-17.4 z m 11.9,36.5 c -4.2,1.3 -7.1,-5.5 -9.9,-14.1 -2.8,-8.6 -4.5,-15.9 -0.3,-17.2 4.2,-1.3 7.1,5.5 9.9,14.1 2.8,8.5 4.5,15.7 0.3,17.2 z M 89.104932,232.1 c -1.1,22.2 17.499998,14.9 17.499998,14.9 -11.899998,-4 -17.499998,-14.9 -17.499998,-14.9 z m 287.499998,169.7 15.4,40.7 4.6,-3 -3.2,-7.8 7.1,-4.6 5.8,6.1 4.7,-3.2 -30.8,-30.7 z m 6.3,5.8 10.3,11.8 4.3,4.6 -5.7,3.7 z m -68.7,18.8 8.2,41.7 5.5,-1.1 -8.2,-41.7 z m -28.8,63.6 c 1.3,-0.5 2.2,-1.7 2.2,-3.6 0,-2.5 -1.8,-4.2 -5,-4.2 -1.3,0 -2.6,0.3 -3.8,0.8 l -0.3,0.1 v 13.2 h 2.6 v -5.5 h 0.7 c 0.9,0 1.2,0.3 1.6,1.1 l 2.1,4.5 h 2.9 l -2.5,-5.1 c 0,-0.5 -0.3,-0.9 -0.5,-1.3 z m -3.1,-1.4 h -1.1 v -3.7 c 0.4,-0.1 0.9,-0.1 1.4,-0.1 1.8,0 2.4,0.7 2.4,1.8 0,1.4 -0.7,1.8 -2.7,2 z m 181.7,-222.1 c -0.1,0.9 4.9,2.1 11.3,6.1 6.3,3.8 13.8,10.5 22.2,17.8 0.8,0.5 -0.1,1.7 -0.4,1.4 -22.2,-17.2 -44.2,-19.9 -44,-17 0.1,1.2 5,1.2 11.3,3.6 9.1,3.4 21.5,9.7 30.5,16.3 0.7,0.4 -0.1,1.1 -0.5,0.9 -25.8,-9.1 -49.1,-14.3 -48.8,-11.2 0.1,1.3 7.4,1.4 16.5,3.9 12.4,3.6 28.7,9.7 39.5,13.8 0.3,-0.1 1.8,0.4 4.9,-2.2 2.5,-2.4 2.1,-3.6 2.1,-3.6 -23.9,-26.3 -43.9,-33 -44.6,-29.8 z m -297.4,118.3 -28.4,31.6 4.2,3.8 28.4,-31.6 z m 20,15.7 -8.7,12.4 -8.7,14.7 h -0.1 l 10.4,-32.1 -4.5,-3.2 -24.3,34.9 4.6,3.3 9,-12.8 7.5,-12.1 1.3,-2.5 h 0.1 l -10.7,32.5 4.3,3 24.4,-34.9 z m -73.4,-122.2 c -3.3,-10.4 -11.1,-13 -11.1,-13 8.7,16.6 2.5,27.8 2.5,27.8 0,0 9.2,1.1 15,-3.7 4.5,-13.8 -5.9,-25.5 -5.9,-25.5 1.3,6.3 -0.5,14.4 -0.5,14.4 z m 149.3,165.2 -1.1,17.1 -0.1,0.1 -5.3,-33.4 -5.4,-0.8 -5.9,42.1 5.5,0.8 2.2,-15.5 1.2,-14.2 v -2.8 l 0.1,-0.1 5.3,33.8 5.1,0.8 5.9,-42.1 -5.5,-0.8 z m -26.9,-20.6 -6.6,-1.7 -11.1,41.1 5.4,1.4 5.4,-20.1 h 0.1 l 2,22.1 5.7,1.6 -2.2,-22 c 4.7,0.4 7.5,-5.1 8.6,-9.1 2.8,-10.4 -3.2,-12.3 -7.3,-13.3 z m 1.3,12.9 c -1.1,4.1 -3.3,6.3 -7.2,5 l 3.7,-13.6 0.9,0.3 c 4.1,0.9 3.7,4.3 2.6,8.3 z m -20.4,5.4 1.8,-4.6 -7.9,-3.2 5,-12.4 8.8,3.6 1.8,-4.6 -14.1,-5.7 -15.9,39.5 14.1,5.7 1.8,-4.6 -8.8,-3.6 5.4,-13.4 z m -9.3,-23.5 2.4,-4.3 -16.5,-8.8 -2.4,4.3 5.9,3.2 -17.6,33.2 5,2.6 17.6,-33.2 z"
     id="path879" /></g>
</svg>
